<svg width="94" height="40" viewBox="0 0 94 40" fill="none" xmlns="http://www.w3.org/2000/svg">
<g clip-path="url(#clip0)">
<path d="M42.0526 0.458786V9.61225C42.0526 9.74333 41.9643 9.83071 41.8317 9.83071H39.9544C39.8881 9.83071 39.8219 9.78702 39.7777 9.74333L36.3764 5.15567C36.2439 4.98091 35.9788 5.06829 35.9788 5.28675V9.61225C35.9788 9.74333 35.8905 9.83071 35.758 9.83071H33.6156C33.4831 9.83071 33.3947 9.74333 33.3947 9.61225V0.458786C33.3947 0.32771 33.4831 0.240326 33.6156 0.240326H35.6254C35.6917 0.240326 35.758 0.284018 35.8021 0.32771L39.0709 4.7406C39.2035 4.91537 39.4685 4.82798 39.4685 4.60952V0.458786C39.4685 0.32771 39.5568 0.240326 39.6894 0.240326H41.8317C41.9422 0.240326 42.0526 0.349556 42.0526 0.458786Z" fill="#FA5075"/>
<path d="M43.422 5.04642C43.422 2.11906 45.6527 0 48.7669 0C51.8811 0 54.0898 2.09721 54.0898 5.04642C54.0898 7.99563 51.8811 10.0928 48.7669 10.0928C45.6527 10.0928 43.422 7.97378 43.422 5.04642ZM48.7669 7.62425C50.2467 7.62425 51.3069 6.5538 51.3069 5.04642C51.3069 3.53905 50.2467 2.4686 48.7669 2.4686C47.2871 2.4686 46.2049 3.5609 46.2049 5.04642C46.2049 6.53195 47.2871 7.62425 48.7669 7.62425Z" fill="#FA5075"/>
<path d="M61.5991 4.78429C62.5047 5.22121 63.0789 6.0732 63.0789 7.12181C63.0789 8.67288 61.7317 9.85256 59.9206 9.85256H55.6579C55.5254 9.85256 55.437 9.76518 55.437 9.6341V0.458786C55.437 0.32771 55.5254 0.240326 55.6579 0.240326H59.8543C61.5771 0.240326 62.836 1.28893 62.836 2.68708C62.8139 3.56092 62.328 4.32553 61.5991 4.78429ZM60.4286 6.79412C60.4286 6.29166 60.0531 5.92028 59.4788 5.92028H58.242C58.1095 5.92028 58.0211 6.00767 58.0211 6.13874V7.4495C58.0211 7.58058 58.1095 7.66796 58.242 7.66796H59.4788C60.0531 7.66796 60.4286 7.31843 60.4286 6.79412ZM60.274 3.14584C60.274 2.64338 59.9206 2.31569 59.3684 2.31569H58.242C58.1095 2.31569 58.0211 2.40308 58.0211 2.53415V3.77938C58.0211 3.91045 58.1095 3.99784 58.242 3.99784H59.3684C59.9427 3.97599 60.274 3.62645 60.274 3.14584Z" fill="#FA5075"/>
<path d="M63.9845 5.04642C63.9845 2.11906 66.1931 0 69.3294 0C72.4436 0 74.6523 2.09721 74.6523 5.04642C74.6523 7.99563 72.4436 10.0928 69.3294 10.0928C66.1931 10.0928 63.9845 7.97378 63.9845 5.04642ZM69.3294 7.62425C70.8092 7.62425 71.8694 6.5538 71.8694 5.04642C71.8694 3.53905 70.8092 2.4686 69.3294 2.4686C67.8496 2.4686 66.7674 3.5609 66.7674 5.04642C66.7674 6.53195 67.8496 7.62425 69.3294 7.62425Z" fill="#FA5075"/>
<path d="M84.9666 5.0246C84.9666 7.82088 82.8905 9.83071 79.953 9.83071H76.2425C76.11 9.83071 76.0216 9.74333 76.0216 9.61225V0.458786C76.0216 0.32771 76.11 0.240326 76.2425 0.240326H79.953C82.8905 0.240326 84.9666 2.22831 84.9666 5.0246ZM82.2058 5.0246C82.2058 3.60461 81.2561 2.66523 79.8205 2.66523H78.9149C78.7824 2.66523 78.6941 2.75261 78.6941 2.88369V7.2092C78.6941 7.34027 78.7824 7.42766 78.9149 7.42766H79.8205C81.2561 7.42766 82.2058 6.44459 82.2058 5.0246Z" fill="#FA5075"/>
<path d="M90.7753 6.13871V9.61222C90.7753 9.7433 90.687 9.83068 90.5545 9.83068H88.2796C88.1471 9.83068 88.0587 9.7433 88.0587 9.61222V6.11686C88.0587 6.07317 88.0587 6.05132 88.0366 6.00763L84.8783 0.546135C84.7899 0.393213 84.9004 0.218445 85.077 0.218445H87.5286C87.617 0.218445 87.6832 0.262137 87.7274 0.327675L89.2514 3.29873C89.3397 3.45165 89.5606 3.45165 89.6489 3.29873L91.1729 0.327675C91.2171 0.262137 91.2833 0.218445 91.3717 0.218445H93.8233C94 0.218445 94.0883 0.393213 94.0221 0.546135L90.8416 6.00763C90.7753 6.07317 90.7753 6.11686 90.7753 6.13871Z" fill="#FA5075"/>
<path d="M51.1302 19.3774C51.2627 19.3774 51.351 19.4866 51.351 19.5958C51.2627 22.6106 49.2086 24.7515 46.249 24.7515C43.2674 24.7515 41.0808 22.6324 41.0808 19.7269C41.0808 16.8214 43.2453 14.6805 46.227 14.6805C48.6565 14.6805 50.6884 16.1223 51.1964 18.2195C51.2406 18.3506 51.1302 18.5035 50.9756 18.5035H48.5902C48.5019 18.5035 48.4356 18.4598 48.3914 18.3725C48.016 17.6297 47.1767 17.1709 46.249 17.1709C44.7913 17.1709 43.8195 18.2195 43.8195 19.7488C43.8195 21.2561 44.7913 22.3047 46.249 22.3047C47.1104 22.3047 47.8614 21.9552 48.2589 21.4309C48.3693 21.278 48.2589 21.0814 48.0822 21.0814H46.2711C46.1386 21.0814 46.0503 20.994 46.0503 20.8629V19.6395C46.0503 19.5084 46.1386 19.4211 46.2711 19.4211L51.1302 19.3774Z" fill="#FA5075"/>
<path d="M58.6395 22.9601H55.5254C55.437 22.9601 55.3487 23.0256 55.3266 23.113L54.8848 24.3801C54.8628 24.4675 54.7744 24.533 54.6861 24.533H52.3007C52.1461 24.533 52.0357 24.3801 52.102 24.2272L55.7462 15.0737C55.7904 14.9863 55.8567 14.9426 55.945 14.9426H58.2641C58.3524 14.9426 58.4408 14.9863 58.4629 15.0737L62.1734 24.2272C62.2396 24.3801 62.1292 24.533 61.9746 24.533H59.523C59.4347 24.533 59.3463 24.4675 59.3242 24.3801L58.8825 23.113C58.8162 23.0256 58.7279 22.9601 58.6395 22.9601ZM56.8726 18.5035L56.1217 20.6007C56.0775 20.7537 56.1879 20.8847 56.3205 20.8847H57.8223C57.9769 20.8847 58.0874 20.7318 58.0211 20.6007L57.2702 18.5035C57.2039 18.3069 56.9389 18.3069 56.8726 18.5035Z" fill="#FA5075"/>
<path d="M73.4375 24.3364L72.8191 19.7487C72.797 19.5303 72.4878 19.4866 72.3994 19.6832L70.2129 24.4238C70.1687 24.5112 70.1024 24.5549 70.0141 24.5549H69.5061C69.4178 24.5549 69.3515 24.5112 69.3073 24.4238L67.1208 19.7051C67.0324 19.5084 66.7232 19.5521 66.7011 19.7706L66.0827 24.3582C66.0606 24.4675 65.9723 24.5549 65.8618 24.5549H63.609C63.4765 24.5549 63.3661 24.4456 63.3881 24.3146L64.7796 15.1611C64.8017 15.0519 64.89 14.9645 65.0005 14.9645H67.3416C67.43 14.9645 67.5183 15.0082 67.5404 15.0956L69.5724 19.7269C69.6386 19.9017 69.9036 19.9017 69.9699 19.7269L72.0019 15.0956C72.046 15.0082 72.1123 14.9645 72.2006 14.9645H74.5418C74.6522 14.9645 74.7406 15.0519 74.7627 15.1611L76.1541 24.3146C76.1762 24.4456 76.0658 24.5549 75.9333 24.5549H73.6804C73.5479 24.5112 73.4596 24.4456 73.4375 24.3364Z" fill="#FA5075"/>
<path d="M84.4807 22.4358V24.2927C84.4807 24.4238 84.3923 24.5112 84.2598 24.5112H78.3848C78.2523 24.5112 78.1639 24.4238 78.1639 24.2927V15.1392C78.1639 15.0082 78.2523 14.9208 78.3848 14.9208H84.1494C84.2819 14.9208 84.3702 15.0082 84.3702 15.1392V16.9961C84.3702 17.1272 84.2819 17.2146 84.1494 17.2146H81.0352C80.9027 17.2146 80.8143 17.302 80.8143 17.4331V18.4161C80.8143 18.5472 80.9027 18.6346 81.0352 18.6346H83.7739C83.9064 18.6346 83.9948 18.722 83.9948 18.8531V20.5789C83.9948 20.71 83.9064 20.7973 83.7739 20.7973H81.0352C80.9027 20.7973 80.8143 20.8847 80.8143 21.0158V22.0207C80.8143 22.1518 80.9027 22.2392 81.0352 22.2392H84.2598C84.3702 22.2173 84.4807 22.3266 84.4807 22.4358Z" fill="#FA5075"/>
<path d="M86.4243 21.409H88.7434C88.8538 21.409 88.9422 21.4964 88.9643 21.6057C89.0526 22.1737 89.5385 22.4358 90.0907 22.4358C90.6428 22.4358 91.195 22.1518 91.195 21.6275C91.195 21.0158 90.4441 20.841 89.5164 20.6226C88.1029 20.2731 86.3139 19.858 86.3139 17.6734C86.3139 15.7728 87.7274 14.7023 90.0023 14.7023C92.2331 14.7023 93.5582 15.7946 93.6466 17.6078C93.6466 17.7389 93.5582 17.8263 93.4257 17.8263H91.1729C91.0625 17.8263 90.9741 17.7389 90.952 17.6515C90.8637 17.1709 90.4441 16.9525 89.9582 16.9525C89.4723 16.9525 89.0305 17.1491 89.0305 17.6078C89.0305 18.154 89.7594 18.3288 90.6649 18.5691C92.1005 18.9404 93.9558 19.3992 93.9558 21.6057C93.9558 23.7029 92.3214 24.7952 90.0686 24.7952C87.7937 24.7952 86.2697 23.6373 86.1593 21.693C86.2035 21.5183 86.2918 21.409 86.4243 21.409Z" fill="#FA5075"/>
<path d="M53.9351 37.6406H50.8209C50.7326 37.6406 50.6443 37.7062 50.6222 37.7936L50.1804 39.0606C50.1584 39.148 50.07 39.2136 49.9817 39.2136H47.5963C47.4417 39.2136 47.3313 39.0606 47.3975 38.9077L51.0418 29.7542C51.086 29.6669 51.1522 29.6232 51.2406 29.6232H53.5597C53.648 29.6232 53.7364 29.6669 53.7584 29.7542L57.469 38.9077C57.5352 39.0606 57.4248 39.2136 57.2702 39.2136H54.8186C54.7302 39.2136 54.6419 39.148 54.6198 39.0606L54.1781 37.7936C54.1118 37.6843 54.0456 37.6406 53.9351 37.6406ZM52.1682 33.1622L51.4173 35.2594C51.3731 35.4124 51.4835 35.5434 51.6161 35.5434H53.1179C53.2725 35.5434 53.383 35.3905 53.3167 35.2594L52.5658 33.1622C52.5216 32.9656 52.2345 32.9656 52.1682 33.1622Z" fill="white"/>
<path d="M64.6691 36.9853V38.9732C64.6691 39.1043 64.5808 39.1917 64.4483 39.1917H58.7279C58.5954 39.1917 58.507 39.1043 58.507 38.9732V29.8198C58.507 29.6887 58.5954 29.6013 58.7279 29.6013H61.0028C61.1353 29.6013 61.2237 29.6887 61.2237 29.8198V36.5702C61.2237 36.7013 61.312 36.7886 61.4445 36.7886H64.4483C64.5808 36.7668 64.6691 36.876 64.6691 36.9853Z" fill="white"/>
<path d="M65.0888 34.3856C65.0888 31.4582 67.3195 29.3392 70.4337 29.3392C73.5479 29.3392 75.7566 31.4364 75.7566 34.3856C75.7566 37.3348 73.5479 39.432 70.4337 39.432C67.3195 39.432 65.0888 37.3348 65.0888 34.3856ZM70.4337 36.9634C71.9135 36.9634 72.9737 35.893 72.9737 34.3856C72.9737 32.8782 71.9135 31.8078 70.4337 31.8078C68.9539 31.8078 67.8717 32.9001 67.8717 34.3856C67.8717 35.8711 68.9539 36.9634 70.4337 36.9634Z" fill="white"/>
<path d="M85.7838 29.8198V38.9732C85.7838 39.1043 85.6955 39.1917 85.5629 39.1917H83.6856C83.6193 39.1917 83.5531 39.148 83.5089 39.1043L80.1076 34.5167C79.9751 34.3419 79.71 34.4293 79.71 34.6477V38.9732C79.71 39.1043 79.6217 39.1917 79.4892 39.1917H77.3468C77.2143 39.1917 77.1259 39.1043 77.1259 38.9732V29.8198C77.1259 29.6887 77.2143 29.6013 77.3468 29.6013H79.3566C79.4229 29.6013 79.4892 29.645 79.5333 29.6887L82.8021 34.1016C82.9347 34.2764 83.1997 34.189 83.1997 33.9705V29.8198C83.1997 29.6887 83.288 29.6013 83.4206 29.6013H85.5629C85.6955 29.6013 85.7838 29.6887 85.7838 29.8198Z" fill="white"/>
<path d="M94 37.1163V38.9732C94 39.1043 93.9117 39.1917 93.7792 39.1917H87.9042C87.7716 39.1917 87.6833 39.1043 87.6833 38.9732V29.8198C87.6833 29.6887 87.7716 29.6013 87.9042 29.6013H93.6466C93.7792 29.6013 93.8675 29.6887 93.8675 29.8198V31.6767C93.8675 31.8078 93.7792 31.8951 93.6466 31.8951H90.5545C90.422 31.8951 90.3337 31.9825 90.3337 32.1136V33.0967C90.3337 33.2278 90.422 33.3151 90.5545 33.3151H93.2933C93.4258 33.3151 93.5141 33.4025 93.5141 33.5336V35.2594C93.5141 35.3905 93.4258 35.4779 93.2933 35.4779H90.5545C90.422 35.4779 90.3337 35.5653 90.3337 35.6963V36.7013C90.3337 36.8323 90.422 36.9197 90.5545 36.9197H93.7792C93.8896 36.8979 94 36.9853 94 37.1163Z" fill="white"/>
<path d="M17.3375 32.769C18.5301 30.6062 20.6504 27.8536 24.7364 28.2687C27.6298 28.5527 28.9108 30.3004 30.0593 33.8176L31.7599 39.5194C31.8704 39.7816 32.1354 39.9563 32.4446 39.9563H41.3013C41.8093 39.9563 42.1847 39.432 41.986 38.9514L26.5254 0.917551C26.3487 0.502478 25.9512 0.240326 25.5095 0.240326H16.189C15.7252 0.240326 15.3276 0.524324 15.1509 0.939398L0.0437605 38.9733C-0.155018 39.4539 0.198366 39.9563 0.728441 39.9563H12.103C12.3901 39.9563 14.157 39.716 14.2674 39.4539C14.2674 39.4757 16.1227 34.9318 17.3375 32.769ZM26.4371 19.1153C28.9991 18.875 31.1415 20.9722 30.8765 23.5063C30.6998 25.3851 29.1537 26.8924 27.2543 27.089C24.6923 27.3293 22.5499 25.2321 22.8149 22.698C23.0137 20.8192 24.5376 19.3119 26.4371 19.1153Z" fill="white"/>
<path d="M8.70203 39.9782C9.91678 29.0989 14.5108 26.7614 17.625 26.7614C20.0103 26.7614 21.0042 27.8755 21.0042 27.8755C21.0042 27.8755 18.7072 28.3343 16.8961 32.7908C15.8139 35.4561 14.9967 37.9465 14.3782 39.3009C14.1795 39.7379 13.7377 40.0219 13.2298 40.0219L8.70203 39.9782Z" fill="#FA5075"/>
<path d="M16.9844 17.5642C19.5465 17.3239 21.6888 19.4211 21.4238 21.9553C21.2471 23.834 19.7011 25.3414 17.8016 25.538C15.2396 25.7783 13.0972 23.6811 13.3623 21.1469C13.561 19.2682 15.1071 17.7608 16.9844 17.5642Z" fill="#FA5075"/>
</g>
<defs>
<clipPath id="clip0">
<rect width="94" height="40" fill="white"/>
</clipPath>
</defs>
</svg>
